[h264 @ 0x564454021600] Reinit context to 1280x720, pix_fmt: yuv420p
Input #0, mov,mp4,m4a,3gp,3g2,mj2, from '/var/www/html/project/media/video/original/20250528_MERCATO_SARACENO_FC_MALTEMPO_TV_2.mp4':
  Metadata:
    major_brand     : mp42
    minor_version   : 1
    compatible_brands: isommp41mp42
    creation_time   : 2025-05-28T08:10:45.000000Z
  Duration: 00:00:24.84, start: 0.000000, bitrate: 4206 kb/s
    Stream #0:0(eng): Audio: aac (LC) (mp4a / 0x6134706D), 44100 Hz, stereo, fltp, 125 kb/s (default)
    Metadata:
      creation_time   : 2025-05-28T08:10:45.000000Z
      handler_name    : Core Media Audio
    Stream #0:1(und): Video: h264 (High), 1 reference frame (avc1 / 0x31637661), yuv420p(tv, bt709, progressive, left), 1280x720, 4034 kb/s, SAR 1:1 DAR 16:9, 25 fps, 25 tbr, 25k tbn, 50k tbc (default)
    Metadata:
      creation_time   : 2025-05-28T08:10:45.000000Z
      handler_name    : Core Media Video
Input #1, png_pipe, from '/var/www/html/project/static/images/templates/logo.png':
  Duration: N/A, bitrate: N/A
    Stream #1:0: Video: png, 1 reference frame, rgba(pc), 1920x1080 [SAR 2835:2835 DAR 16:9], 25 tbr, 25 tbn, 25 tbc
[h264 @ 0x56445406ce80] Reinit context to 1280x720, pix_fmt: yuv420p
Input #2, mov,mp4,m4a,3gp,3g2,mj2, from '/var/www/html/project/static/images/templates/Codino.mp4':
  Metadata:
    major_brand     : mp42
    minor_version   : 1
    compatible_brands: isommp41mp42
    creation_time   : 2021-07-11T07:02:58.000000Z
  Duration: 00:00:02.00, start: 0.000000, bitrate: 1007 kb/s
    Stream #2:0(ita): Audio: aac (LC) (mp4a / 0x6134706D), 44100 Hz, stereo, fltp, 102 kb/s (default)
    Metadata:
      creation_time   : 2021-07-11T07:02:58.000000Z
      handler_name    : Core Media Audio
    Stream #2:1(und): Video: h264 (High), 1 reference frame (avc1 / 0x31637661), yuv420p(tv, bt709, progressive, left), 1280x720 [SAR 1:1 DAR 16:9], 813 kb/s, 25 fps, 25 tbr, 25k tbn, 50k tbc (default)
    Metadata:
      creation_time   : 2021-07-11T07:02:58.000000Z
      handler_name    : Core Media Video
[Parsed_scale_0 @ 0x564454067c80] w:1280 h:720 flags:'bilinear' interl:0
[Parsed_scale_2 @ 0x564454069ac0] w:1280 h:720 flags:'bilinear' interl:0
[Parsed_scale_4 @ 0x5644540a1fc0] w:1280 h:720 flags:'bilinear' interl:0
Stream mapping:
  Stream #0:0 (aac) -> concat:in0:a0
  Stream #0:1 (h264) -> scale
  Stream #1:0 (png) -> scale
  Stream #2:0 (aac) -> concat:in1:a0
  Stream #2:1 (h264) -> scale
  concat:out:v0 -> Stream #0:0 (libx264)
  concat:out:a0 -> Stream #0:1 (aac)
Press [q] to stop, [?] for help
[h264 @ 0x564454078380] Reinit context to 1280x720, pix_fmt: yuv420p
[h264 @ 0x56445443e380] Reinit context to 1280x720, pix_fmt: yuv420p
[Parsed_scale_0 @ 0x5644553d4000] w:1280 h:720 flags:'bilinear' interl:0
[Parsed_scale_2 @ 0x5644553d4180] w:1280 h:720 flags:'bilinear' interl:0
[Parsed_scale_4 @ 0x5644553dda00] w:1280 h:720 flags:'bilinear' interl:0
[graph 0 input from stream 0:1 @ 0x5644553e2180] w:1280 h:720 pixfmt:yuv420p tb:1/25000 fr:25/1 sar:1/1 sws_param:flags=2
[graph 0 input from stream 1:0 @ 0x5644553e31c0] w:1920 h:1080 pixfmt:rgba tb:1/25 fr:25/1 sar:2835/2835 sws_param:flags=2
[graph 0 input from stream 2:1 @ 0x5644553e4240] w:1280 h:720 pixfmt:yuv420p tb:1/25000 fr:25/1 sar:1/1 sws_param:flags=2
[graph_0_in_0_0 @ 0x5644553e5200] tb:1/44100 samplefmt:fltp samplerate:44100 chlayout:0x3
[graph_0_in_2_0 @ 0x5644553e6340] tb:1/44100 samplefmt:fltp samplerate:44100 chlayout:0x3
[Parsed_scale_0 @ 0x5644553d4000] w:1280 h:720 fmt:yuv420p sar:1/1 -> w:1280 h:720 fmt:yuv420p sar:1/1 flags:0x2
[Parsed_setsar_1 @ 0x564454186780] w:1280 h:720 sar:1/1 dar:16/9 -> sar:1/1 dar:16/9
[Parsed_scale_2 @ 0x5644553d4180] w:1920 h:1080 fmt:rgba sar:2835/2835 -> w:1280 h:720 fmt:yuva420p sar:1/1 flags:0x2
[Parsed_setsar_3 @ 0x5644553dcc80] w:1280 h:720 sar:1/1 dar:16/9 -> sar:1/1 dar:16/9
[Parsed_overlay_6 @ 0x5644553df080] main w:1280 h:720 fmt:yuv420p overlay w:1280 h:720 fmt:yuva420p
[Parsed_overlay_6 @ 0x5644553df080] [framesync @ 0x5644553df1e8] Selected 1/25000 time base
[Parsed_overlay_6 @ 0x5644553df080] [framesync @ 0x5644553df1e8] Sync level 2
[Parsed_scale_4 @ 0x5644553dda00] w:1280 h:720 fmt:yuv420p sar:1/1 -> w:1280 h:720 fmt:yuv420p sar:1/1 flags:0x2
[Parsed_setsar_5 @ 0x5644553de500] w:1280 h:720 sar:1/1 dar:16/9 -> sar:1/1 dar:16/9
[libx264 @ 0x564454079000] using SAR=1/1
[libx264 @ 0x564454079000] using cpu capabilities: MMX2 SSE2Fast SSSE3 SSE4.2 AVX FMA3 BMI2 AVX2
[libx264 @ 0x564454079000] profile High, level 3.1
[libx264 @ 0x564454079000] 264 - core 155 r2917 0a84d98 - H.264/MPEG-4 AVC codec - Copyleft 2003-2018 - http://www.videolan.org/x264.html - options: cabac=1 ref=1 deblock=1:0:0 analyse=0x3:0x113 me=hex subme=2 psy=1 psy_rd=1.00:0.00 mixed_ref=0 me_range=16 chroma_me=1 trellis=0 8x8dct=1 cqm=0 deadzone=21,11 fast_pskip=1 chroma_qp_offset=0 threads=22 lookahead_threads=5 sliced_threads=0 nr=0 decimate=1 interlaced=0 bluray_compat=0 constrained_intra=0 bframes=3 b_pyramid=2 b_adapt=1 b_bias=0 direct=1 weightb=1 open_gop=0 weightp=1 keyint=250 keyint_min=25 scenecut=40 intra_refresh=0 rc_lookahead=10 rc=crf mbtree=1 crf=18.0 qcomp=0.60 qpmin=0 qpmax=69 qpstep=4 ip_ratio=1.40 aq=1:1.00
Output #0, mp4, to '/var/www/html/project/media/video/watermarks/20250528_MERCATO_SARACENO_FC_MALTEMPO_TV_2.mp4':
  Metadata:
    major_brand     : mp42
    minor_version   : 1
    compatible_brands: isommp41mp42
    encoder         : Lavf58.29.100
    Stream #0:0: Video: h264 (libx264), 1 reference frame (avc1 / 0x31637661), yuv420p(progressive), 1280x720 [SAR 1:1 DAR 16:9], q=-1--1, 25 fps, 12800 tbn, 25 tbc (default)
    Metadata:
      encoder         : Lavc58.54.100 libx264
    Side data:
      cpb: bitrate max/min/avg: 0/0/0 buffer size: 0 vbv_delay: -1
    Stream #0:1: Audio: aac (LC) (mp4a / 0x6134706D), 44100 Hz, stereo, fltp, delay 1024, 128 kb/s (default)
    Metadata:
      encoder         : Lavc58.54.100 aac
[Parsed_concat_7 @ 0x5644553e01c0] EOF on in0:a0, 1 streams left in segment.
[Parsed_overlay_6 @ 0x5644553df080] [framesync @ 0x5644553df1e8] Sync level 0
[Parsed_concat_7 @ 0x5644553e01c0] EOF on in0:v0, 0 streams left in segment.
[Parsed_concat_7 @ 0x5644553e01c0] Segment finished at pts=24843900
[Parsed_concat_7 @ 0x5644553e01c0] EOF on in1:a0, 1 streams left in segment.
[Parsed_concat_7 @ 0x5644553e01c0] EOF on in1:v0, 0 streams left in segment.
[Parsed_concat_7 @ 0x5644553e01c0] Segment finished at pts=26862585
No more output streams to write to, finishing.
frame=  671 fps= 77 q=-1.0 Lsize=   12197kB time=00:00:26.86 bitrate=3719.2kbits/s speed=3.09x    
[AVIOContext @ 0x56445401dec0] Statistics: 0 seeks, 18 writeouts
video:11759kB audio:415kB subtitle:0kB other streams:0kB global headers:0kB muxing overhead: 0.190640%
Input file #0 (/var/www/html/project/media/video/original/20250528_MERCATO_SARACENO_FC_MALTEMPO_TV_2.mp4):
  Input stream #0:0 (audio): 1072 packets read (391761 bytes); 1070 frames decoded (1095616 samples); 
  Input stream #0:1 (video): 621 packets read (12526793 bytes); 621 frames decoded; 
  Total: 1693 packets (12918554 bytes) demuxed
Input file #1 (/var/www/html/project/static/images/templates/logo.png):
  Input stream #1:0 (video): 1 packets read (111578 bytes); 1 frames decoded; 
  Total: 1 packets (111578 bytes) demuxed
Input file #2 (/var/www/html/project/static/images/templates/Codino.mp4):
  Input stream #2:0 (audio): 89 packets read (26579 bytes); 87 frames decoded (89024 samples); 
  Input stream #2:1 (video): 50 packets read (203365 bytes); 50 frames decoded; 
  Total: 139 packets (229944 bytes) demuxed
Output file #0 (/var/www/html/project/media/video/watermarks/20250528_MERCATO_SARACENO_FC_MALTEMPO_TV_2.mp4):
  Output stream #0:0 (video): 671 frames encoded; 671 packets muxed (12040770 bytes); 
  Output stream #0:1 (audio): 1157 frames encoded (1184640 samples); 1158 packets muxed (425160 bytes); 
  Total: 1829 packets (12465930 bytes) muxed
[AVIOContext @ 0x56445404a5c0] Statistics: 2 seeks, 51 writeouts
[libx264 @ 0x564454079000] frame I:5     Avg QP:14.86  size: 99682
[libx264 @ 0x564454079000] frame P:199   Avg QP:16.22  size: 31469
[libx264 @ 0x564454079000] frame B:467   Avg QP:19.25  size: 11305
[libx264 @ 0x564454079000] consecutive B-frames:  3.7%  8.9%  4.5% 82.9%
[libx264 @ 0x564454079000] mb I  I16..4: 19.1% 21.9% 59.0%
[libx264 @ 0x564454079000] mb P  I16..4: 14.9% 19.5%  7.7%  P16..4: 21.7% 11.4%  8.2%  0.0%  0.0%    skip:16.6%
[libx264 @ 0x564454079000] mb B  I16..4:  3.9%  7.2%  1.2%  B16..8: 19.8%  7.9%  1.4%  direct:19.7%  skip:38.8%  L0:40.9% L1:41.7% BI:17.4%
[libx264 @ 0x564454079000] 8x8 transform intra:50.3% inter:48.9%
[libx264 @ 0x564454079000] coded y,uvDC,uvAC intra: 47.8% 61.6% 17.4% inter: 17.7% 39.3% 1.7%
[libx264 @ 0x564454079000] i16 v,h,dc,p: 61% 21% 11%  6%
[libx264 @ 0x564454079000] i8 v,h,dc,ddl,ddr,vr,hd,vl,hu: 24% 37% 18%  3%  3%  3%  4%  3%  5%
[libx264 @ 0x564454079000] i4 v,h,dc,ddl,ddr,vr,hd,vl,hu: 22% 32% 11%  5%  6%  5%  8%  4%  6%
[libx264 @ 0x564454079000] i8c dc,h,v,p: 44% 29% 19%  8%
[libx264 @ 0x564454079000] Weighted P-Frames: Y:13.6% UV:10.6%
[libx264 @ 0x564454079000] kb/s:3588.70
[aac @ 0x5644541d0400] Qavg: 1885.648
[AVIOContext @ 0x564454026e80] Statistics: 43207425 bytes read, 1216 seeks
[AVIOContext @ 0x564454062b80] Statistics: 111578 bytes read, 0 seeks
[AVIOContext @ 0x5644540262c0] Statistics: 1530915 bytes read, 42 seeks
